HIERARCHY
ROOT Hips
{
 OFFSET 0.000000 0.000000 0.000000
 CHANNELS 6 Xposition Yposition Zposition Yrotation Xrotation Zrotation
 JOINT Chest
 {
  OFFSET 0.000000 9.857222 0.000240
  CHANNELS 3 Yrotation Xrotation Zrotation
  JOINT Chest2
  {
   OFFSET 0.000000 10.876940 -0.000436
   CHANNELS 3 Yrotation Xrotation Zrotation
   JOINT Chest3
   {
    OFFSET 0.000000 9.827798 0.000000
    CHANNELS 3 Yrotation Xrotation Zrotation
    JOINT Chest4
    {
     OFFSET 0.000000 9.827798 0.000000
     CHANNELS 3 Yrotation Xrotation Zrotation
     JOINT Neck
     {
      OFFSET 0.000000 13.831992 0.000000
      CHANNELS 3 Yrotation Xrotation Zrotation
      JOINT Head
      {
       OFFSET 0.000000 9.147643 -0.001036
       CHANNELS 3 Yrotation Xrotation Zrotation
       End Site
       {
        OFFSET 0.000000 17.515799 -0.000541
       }
      }
     }
     JOINT RightCollar
     {
      OFFSET -3.001579 7.717577 0.000000
      CHANNELS 3 Yrotation Xrotation Zrotation
      JOINT RightShoulder
      {
       OFFSET -14.002642 0.000000 0.000000
       CHANNELS 3 Yrotation Xrotation Zrotation
       JOINT RightElbow
       {
        OFFSET -30.053852 0.000000 0.000000
        CHANNELS 3 Yrotation Xrotation Zrotation
        JOINT RightWrist
        {
         OFFSET -24.564923 0.000000 -0.000000
         CHANNELS 3 Yrotation Xrotation Zrotation
         End Site
         {
          OFFSET -18.334355 0.000000 0.000000
         }
        }
       }
      }
     }
     JOINT LeftCollar
     {
      OFFSET 3.001579 7.717577 0.000000
      CHANNELS 3 Yrotation Xrotation Zrotation
      JOINT LeftShoulder
      {
       OFFSET 14.002642 0.000000 0.000000
       CHANNELS 3 Yrotation Xrotation Zrotation
       JOINT LeftElbow
       {
        OFFSET 30.053852 0.000000 0.000000
        CHANNELS 3 Yrotation Xrotation Zrotation
        JOINT LeftWrist
        {
         OFFSET 24.564923 0.000000 -0.000000
         CHANNELS 3 Yrotation Xrotation Zrotation
         End Site
         {
          OFFSET 18.334355 0.000000 0.000000
         }
        }
       }
      }
     }
    }
   }
  }
 }
 JOINT RightHip
 {
  OFFSET -8.003235 -0.001175 -0.000120
  CHANNELS 3 Yrotation Xrotation Zrotation
  JOINT RightKnee
  {
   OFFSET 0.000000 -41.759727 0.000113
   CHANNELS 3 Yrotation Xrotation Zrotation
   JOINT RightAnkle
   {
    OFFSET 0.000000 -40.728748 0.000159
    CHANNELS 3 Yrotation Xrotation Zrotation
    JOINT RightToe
    {
     OFFSET 0.000000 -6.515296 14.732841
     CHANNELS 3 Yrotation Xrotation Zrotation
     End Site
     {
      OFFSET 0.000000 -1.502839 6.412115
     }
    }
   }
  }
 }
 JOINT LeftHip
 {
  OFFSET 8.003235 -0.001175 -0.000120
  CHANNELS 3 Yrotation Xrotation Zrotation
  JOINT LeftKnee
  {
   OFFSET 0.000000 -41.759727 0.000113
   CHANNELS 3 Yrotation Xrotation Zrotation
   JOINT LeftAnkle
   {
    OFFSET 0.000000 -40.728748 0.000159
    CHANNELS 3 Yrotation Xrotation Zrotation
    JOINT LeftToe
    {
     OFFSET 0.000000 -6.515296 14.732841
     CHANNELS 3 Yrotation Xrotation Zrotation
     End Site
     {
      OFFSET 0.000000 -1.502839 6.412115
     }
    }
   }
  }
 }
}
MOTION
Frames: 7
Frame Time: 0.016667
10.776625 95.869713 0.163547 -36.845712 -4.779975 -1.834763 3.506165 -3.332123 0.944416 1.498390 -1.441985 -0.072791 1.498390 -1.441985 -0.072791 1.123561 -1.081675 -0.051055 2.142908 22.802424 -0.032519 3.871976 6.187177 -0.635394 5.999401 28.108388 13.319722 44.560897 -12.504674 76.332059 8.851273 10.758649 -6.767231 -0.207083 -2.391581 -15.590966 -21.382771 32.633792 -21.225924 -40.509000 11.126106 -71.519481 -52.530077 -11.120251 24.968632 8.743880 2.716812 15.873313 -2.073009 -0.928340 1.267662 4.313634 16.821244 -8.663909 0.966657 1.610849 1.826419 0.025962 -0.902006 0.673700 -19.973532 12.779948 2.265046 29.089410 16.193318 -10.923034 11.004526 -12.604227 -12.488765 0.224394 0.612362 1.007014
11.268509 94.713629 0.326023 -36.719869 -4.682904 -2.079585 3.250329 -3.299375 1.238906 1.483698 -1.402359 -0.020051 1.483698 -1.402359 -0.020051 1.112672 -1.051825 -0.011633 2.208986 22.739425 -0.069828 4.002095 6.073034 -0.722216 6.329141 27.911145 13.297018 46.624118 -12.097147 75.897081 7.765376 8.021019 -7.587614 -0.577975 -2.547161 -15.060697 -21.453755 31.825474 -21.198895 -40.755896 11.428240 -71.112669 -51.440386 -11.711988 24.650953 8.802081 2.804469 15.846889 -1.753019 -1.200867 1.718121 5.867719 18.313264 -8.728364 0.481642 1.453529 2.211035 -0.324756 -1.046246 0.468216 -18.140773 12.618511 3.366581 25.289129 16.815037 -12.172153 11.031742 -13.045933 -12.764255 0.799178 0.056080 1.580251
11.802301 93.291541 0.478012 -36.500064 -4.570320 -2.037342 3.065261 -3.654037 1.166376 1.427907 -1.429228 0.029598 1.427907 -1.429228 0.029598 1.070944 -1.071859 0.025537 2.264643 22.837005 -0.063339 4.099199 6.255368 -0.722594 6.446154 27.765462 13.300363 48.075483 -11.330622 75.562645 6.998557 6.031314 -7.540088 -1.161574 -2.807364 -14.119337 -21.476406 31.530417 -21.254232 -41.139996 11.871053 -70.516349 -50.100470 -12.367389 23.553802 8.915154 2.798088 15.662608 -0.528756 -1.798639 2.071986 6.460850 20.371865 -9.012024 -0.492718 1.326382 2.041305 -0.444175 -1.427650 0.821545 -20.313227 12.249476 3.223756 25.112955 17.435997 -13.111569 11.669178 -13.160874 -13.065159 0.802800 -0.472223 1.906956
12.401267 91.627201 0.610870 -36.423089 -4.317591 -1.899139 3.193296 -4.112382 0.930599 1.396470 -1.441761 0.040843 1.396470 -1.441761 0.040843 1.047393 -1.081234 0.033926 2.253729 22.847239 -0.012084 4.065603 6.272364 -0.627009 6.103691 27.316896 13.238879 49.177677 -10.543504 75.393297 6.588393 4.758942 -7.135167 -1.858935 -3.113691 -12.853926 -21.583915 31.509868 -21.187396 -42.201555 12.446290 -69.727741 -49.038663 -13.662662 22.281861 9.199488 2.939288 15.218161 1.847238 -2.880901 2.624109 3.988265 22.364153 -9.563699 -1.202453 -0.181845 1.453704 0.455219 -2.920047 2.600041 -23.892948 11.640113 1.145300 26.978132 17.212700 -12.379823 13.734764 -14.646200 -11.580106 0.137032 0.685969 0.389287
12.854693 89.927510 0.571061 -36.438876 -3.561020 -1.978471 3.400670 -4.658773 0.879119 1.447191 -1.542739 0.018118 1.447191 -1.542739 0.018118 1.085374 -1.157019 0.017242 2.200354 22.835228 0.072985 3.946699 6.246040 -0.459759 5.454032 27.405614 13.100496 49.888109 -10.490366 74.801313 6.586348 4.165010 -6.368975 -2.367593 -3.213834 -11.814470 -21.764191 31.146209 -20.927120 -44.004072 13.540362 -69.562141 -48.670422 -15.463086 20.848994 9.673872 2.895047 14.968005 3.310238 -4.556283 3.569523 2.044083 24.588749 -10.476063 -1.982457 -3.689556 1.768623 1.037324 -3.176065 3.325163 -25.346025 10.925294 -0.199550 27.856222 16.478891 -11.189658 14.715225 -17.069261 -9.260310 0.134165 2.735051 -1.575175
12.181209 88.897320 -0.184079 -35.701352 -3.285331 -1.989249 3.142529 -4.349780 0.708392 1.530061 -1.410405 -0.038099 1.530061 -1.410405 -0.038099 1.147400 -1.057907 -0.025041 2.043996 22.472496 0.200669 3.634410 5.565492 -0.196908 4.302767 23.618193 13.558168 48.815384 -8.453967 76.107250 6.928841 3.761971 -4.271639 -2.425779 -2.497240 -12.320862 -20.796212 26.500247 -19.166416 -44.937995 16.034896 -73.005828 -49.152645 -15.991166 17.943771 10.310573 2.714279 16.048772 2.015019 -5.076247 4.966279 1.168102 26.033412 -12.045723 -3.907574 -8.229660 1.355410 3.255039 -1.751133 4.759771 -26.232319 11.388988 0.634071 27.523389 15.749829 -15.548372 15.203990 -21.323186 -3.345093 -0.842481 5.608472 -1.976560
10.828592 89.044411 -0.852102 -38.430785 -16.247552 -2.000116 6.086249 2.306609 2.420522 1.673048 1.112212 -0.074102 1.673048 1.112212 -0.074102 1.254881 0.833964 -0.058620 1.994587 22.053765 0.377191 3.500505 4.782411 0.125246 4.571815 22.404017 15.012217 48.869914 -8.777214 76.134161 5.629635 3.853765 -2.966151 -1.757165 -3.083548 -13.743014 -22.858443 25.611678 -21.207124 -42.125433 15.204946 -76.673552 -49.703185 -11.256157 19.657406 10.579737 1.686387 16.943869 5.362393 7.760538 8.659973 -3.664047 24.517716 -16.191951 -1.966053 -7.417276 1.462097 4.210625 -3.433660 5.548534 -24.536176 23.144150 -6.536473 35.371888 17.167120 -10.229628 9.412700 -21.774208 -2.935815 -1.532320 5.138998 -3.686254
